<svg xmlns="http://www.w3.org/2000/svg" width="80" height="80" viewBox="0 0 80 80" fill="none">
  <path d="M40 80C62.0914 80 80 62.0914 80 40C80 17.9086 62.0914 0 40 0C17.9086 0 0 17.9086 0 40C0 62.0914 17.9086 80 40 80Z" fill="#F2F2F2"/>
  <path d="M34.7956 69.4736H45.4418C46.5538 69.4736 47.4552 68.5722 47.4552 67.4602V67.4587C47.4552 66.3467 46.5538 65.4453 45.4418 65.4453H34.7956C33.6836 65.4453 32.7821 66.3467 32.7821 67.4587V67.4602C32.7821 68.5722 33.6836 69.4736 34.7956 69.4736Z" fill="#333333"/>
  <path d="M52.5156 44.9199C54.2842 45.2251 56.1016 44.8179 57.5708 43.7872C59.04 42.7566 60.0416 41.1863 60.3566 39.4195L61.5465 32.6511C61.852 30.8825 61.445 29.0649 60.4142 27.5956C59.3835 26.1263 57.813 25.1248 56.046 24.8101C54.2775 24.5045 52.4598 24.9116 50.9905 25.9423C49.5212 26.973 48.5197 28.5435 48.205 30.3105L47.0152 37.0789C46.7096 38.8475 47.1167 40.6651 48.1474 42.1344C49.1781 43.6038 50.7487 44.6052 52.5156 44.9199Z" fill="#333333"/>
  <path d="M29.4602 45.0125C31.2431 44.8116 32.874 43.9133 33.9968 42.5138C35.1196 41.1144 35.643 39.3276 35.4528 37.5435L34.703 30.7129C34.5017 28.9301 33.6033 27.2994 32.204 26.1767C30.8046 25.054 29.018 24.5304 27.234 24.7203C25.4513 24.9216 23.8206 25.82 22.6979 27.2193C21.5752 28.6187 21.0516 30.4053 21.2414 32.1893L21.9912 39.0199C22.1915 40.8031 23.0896 42.4345 24.4892 43.5575C25.8888 44.6804 27.676 45.2035 29.4602 45.0125Z" fill="#333333"/>
  <path d="M46.0482 48.8262H46.0497C53.7817 48.8262 60.0497 42.5581 60.0497 34.8262V23.7631C60.0497 16.0311 53.7817 9.76305 46.0497 9.76305H46.0482C38.3162 9.76305 32.0482 16.0311 32.0482 23.7631V34.8262C32.0482 42.5581 38.3162 48.8262 46.0482 48.8262Z" fill="#333333"/>
  <path d="M40.1194 63.9466C49.6525 63.9466 57.4516 56.1476 57.4516 46.6159V38.3653C57.4516 28.8322 49.6525 21.6846 40.1194 21.6846C30.5863 21.6846 22.7873 28.8322 22.7873 38.3653V46.6159C22.7873 56.1476 30.5863 63.9466 40.1194 63.9466Z" fill="#FFCC99"/>
  <path d="M60.5162 49.9572C62.4554 48.2644 62.6551 45.32 60.9623 43.3809C59.2694 41.4417 56.3251 41.242 54.3859 42.9348C52.4467 44.6277 52.247 47.572 53.9399 49.5112C55.6327 51.4504 58.5771 51.6501 60.5162 49.9572Z" fill="#FFCC99"/>
  <path d="M27.0243 48.3959C28.0979 46.0563 27.0717 43.2894 24.7321 42.2158C22.3926 41.1422 19.6256 42.1684 18.552 44.508C17.4784 46.8475 18.5047 49.6145 20.8442 50.6881C23.1838 51.7617 25.9507 50.7354 27.0243 48.3959Z" fill="#FFCC99"/>
  <path d="M38.8529 37.5245C31.921 37.5245 25.6708 34.5282 21.1937 29.0394C20.512 28.2038 20.0015 27.2422 19.6914 26.2094C19.3812 25.1766 19.2776 24.0928 19.3863 23.0199C19.4951 21.9471 19.8141 20.9061 20.3251 19.9565C20.8361 19.0069 21.5292 18.1673 22.3647 17.4856C23.2002 16.8038 24.1619 16.2933 25.1947 15.9832C26.2275 15.6731 27.3113 15.5695 28.3841 15.6782C29.457 15.7869 30.4979 16.1059 31.4475 16.617C32.3971 17.128 33.2367 17.8211 33.9185 18.6566C35.3037 20.3545 36.9828 21.1622 39.0628 21.097C41.7522 21.0261 43.8728 19.5815 44.3042 18.991C44.9369 18.111 45.7375 17.365 46.66 16.796C47.5824 16.227 48.6083 15.8462 49.6786 15.6756C50.7489 15.505 51.8424 15.548 52.896 15.802C53.9496 16.0561 54.9425 16.5162 55.8174 17.1559C56.6924 17.7955 57.432 18.602 57.9937 19.5289C58.5555 20.4558 58.9281 21.4847 59.0903 22.5563C59.2524 23.6279 59.2008 24.721 58.9384 25.7726C58.6761 26.8242 58.2081 27.8134 57.5616 28.6833C53.7794 33.8595 46.6896 37.3262 39.4971 37.5129C39.2828 37.5245 39.0672 37.5245 38.8529 37.5245Z" fill="#333333"/>
  <path d="M50.5286 47.6846C51.458 46.7553 51.458 45.2486 50.5286 44.3193C49.5993 43.39 48.0926 43.39 47.1633 44.3193C46.234 45.2486 46.234 46.7553 47.1633 47.6846C48.0926 48.6139 49.5993 48.6139 50.5286 47.6846Z" fill="#333333"/>
  <path d="M31.9371 48.3183C33.2162 48.0164 34.0084 46.7348 33.7065 45.4557C33.4046 44.1766 32.123 43.3844 30.8439 43.6863C29.5648 43.9882 28.7726 45.2698 29.0745 46.5489C29.3764 47.828 30.658 48.6202 31.9371 48.3183Z" fill="#333333"/>
  <path d="M45.947 52.1255H34.2919C34.2919 52.1255 36.1649 56.9384 40.1194 56.9384C44.074 56.9384 45.947 52.1255 45.947 52.1255Z" fill="#F2F2F2"/>
  <path d="M47.7186 41.8218L49.9868 41.9781C50.2341 41.9945 50.478 41.9123 50.6651 41.7497C50.8521 41.587 50.9673 41.3569 50.9855 41.1097C51.0018 40.8623 50.9197 40.6184 50.757 40.4314C50.5943 40.2443 50.3643 40.1291 50.117 40.1109L47.8503 39.9531C47.603 39.9372 47.3594 40.0194 47.1724 40.1821C46.9854 40.3447 46.8701 40.5745 46.8515 40.8216C46.8348 41.069 46.9165 41.313 47.0789 41.5004C47.2414 41.6877 47.4713 41.8033 47.7186 41.8218Z" fill="#333333"/>
  <path d="M32.5202 41.8218L30.252 41.9781C30.0046 41.9945 29.7608 41.9123 29.5737 41.7497C29.3866 41.587 29.2714 41.3569 29.2532 41.1097C29.2369 40.8623 29.319 40.6184 29.4817 40.4314C29.6444 40.2443 29.8745 40.1291 30.1217 40.1109L32.3885 39.9531C32.6358 39.9372 32.8794 40.0194 33.0664 40.1821C33.2534 40.3447 33.3687 40.5745 33.3872 40.8216C33.404 41.069 33.3222 41.313 33.1598 41.5004C32.9974 41.6877 32.7675 41.8033 32.5202 41.8218Z" fill="#333333"/>
  <path d="M40.9575 71.083H39.2813C38.5312 71.083 37.8118 70.785 37.2814 70.2546C36.7509 69.7242 36.453 69.0048 36.453 68.2546V61.5615H43.7859V68.2503C43.7865 68.6221 43.7137 68.9903 43.5718 69.334C43.43 69.6777 43.2217 69.99 42.959 70.2531C42.6963 70.5162 42.3843 70.7249 42.0409 70.8673C41.6974 71.0097 41.3293 71.083 40.9575 71.083Z" fill="#FFCC99"/>
</svg>