<svg width="22" height="22" viewBox="0 0 22 22" fill="none" xmlns="http://www.w3.org/2000/svg">
<path id="Vector" d="M11 21.8334C5.01671 21.8334 0.166626 16.9833 0.166626 11.0001C0.166626 5.01683 5.01671 0.166748 11 0.166748C16.9832 0.166748 21.8333 5.01683 21.8333 11.0001C21.8333 16.9833 16.9832 21.8334 11 21.8334ZM8.51912 19.306C7.45032 17.0389 6.83115 14.5861 6.69588 12.0834H2.40046C2.61126 13.7506 3.30171 15.3206 4.38791 16.6028C5.47411 17.8849 6.90931 18.824 8.51912 19.306ZM8.86579 12.0834C9.02938 14.7257 9.78446 17.2076 11 19.3981C12.2483 17.1497 12.9775 14.6503 13.1341 12.0834H8.86579ZM19.5995 12.0834H15.304C15.1688 14.5861 14.5496 17.0389 13.4808 19.306C15.0906 18.824 16.5258 17.8849 17.612 16.6028C18.6982 15.3206 19.3887 13.7506 19.5995 12.0834ZM2.40046 9.91675H6.69588C6.83115 7.41402 7.45032 4.96124 8.51912 2.69416C6.90931 3.17612 5.47411 4.11523 4.38791 5.3974C3.30171 6.67957 2.61126 8.24961 2.40046 9.91675ZM8.86688 9.91675H13.133C12.9768 7.3499 12.2479 4.85057 11 2.60208C9.75161 4.85048 9.0224 7.34981 8.86579 9.91675H8.86688ZM13.4808 2.69416C14.5496 4.96124 15.1688 7.41402 15.304 9.91675H19.5995C19.3887 8.24961 18.6982 6.67957 17.612 5.3974C16.5258 4.11523 15.0906 3.17612 13.4808 2.69416Z" fill="black"/>
</svg>
