<svg xmlns="http://www.w3.org/2000/svg" width="23" height="22" viewBox="0 0 23 22" fill="none">
  <path d="M9.14125 9.92501L19.0663 0L21.718 2.65165L19.9503 4.41941L22.6019 7.07106L18.1824 11.4905L15.5308 8.83889L11.7929 12.5766C13.0228 14.9329 12.6483 17.9085 10.6694 19.8874C8.22864 22.3281 4.27137 22.3281 1.83059 19.8874C-0.610197 17.4466 -0.610197 13.4893 1.83059 11.0485C3.80944 9.06964 6.78512 8.69514 9.14125 9.92501ZM8.01777 17.2358C8.99413 16.2594 8.99413 14.6765 8.01777 13.7001C7.04145 12.7239 5.45855 12.7239 4.48224 13.7001C3.50593 14.6765 3.50593 16.2594 4.48224 17.2358C5.45855 18.212 7.04145 18.212 8.01777 17.2358Z" fill="#677CF1"/>
</svg>