<svg xmlns="http://www.w3.org/2000/svg" width="18" height="18" viewBox="0 0 18 18" fill="none">
  <g clip-path="url(#clip0_155_333)">
    <path d="M9 0C6.639 0 4.5 1.91475 4.5 4.2765C4.5 6.6375 6.4515 9.45675 9 13.5C11.5485 9.45675 13.5 6.6375 13.5 4.2765C13.5 1.91475 11.3617 0 9 0ZM9 6C8.17125 6 7.5 5.32875 7.5 4.5C7.5 3.67125 8.17125 3 9 3C9.82875 3 10.5 3.67125 10.5 4.5C10.5 5.32875 9.82875 6 9 6ZM17.1608 4.12425C17.1608 3.00525 16.6065 2.00175 15.7343 1.31325L16.29 0.74925C17.3363 1.575 18 2.77875 18 4.12425C18 5.46975 17.3363 6.67425 16.29 7.5L15.7343 6.93525C16.6065 6.2475 17.1608 5.24325 17.1608 4.12425ZM14.625 5.811L15.18 6.37425C15.8783 5.8245 16.3207 5.02125 16.3207 4.12425C16.3207 3.228 15.8783 2.424 15.18 1.87425L14.625 2.4375C15.1477 2.85075 15.4808 3.453 15.4808 4.12425C15.4808 4.7955 15.1477 5.3985 14.625 5.811ZM2.26575 6.93525L1.71 7.5C0.66375 6.67425 0 5.46975 0 4.12425C0 2.77875 0.66375 1.575 1.71 0.74925L2.26575 1.31325C1.3935 2.00175 0.83925 3.00525 0.83925 4.12425C0.83925 5.24325 1.3935 6.2475 2.26575 6.93525ZM2.51925 4.12425C2.51925 3.45225 2.8515 2.85075 3.375 2.4375L2.82 1.87425C2.12175 2.424 1.67925 3.228 1.67925 4.12425C1.67925 5.02125 2.12175 5.8245 2.82 6.37425L3.375 5.811C2.85225 5.3985 2.51925 4.79625 2.51925 4.12425ZM15 15C15 16.6567 12.3142 18 9 18C5.68575 18 3 16.6567 3 15C3 13.7985 4.416 12.765 6.456 12.2858L7.3215 13.6537C7.02075 13.7048 6.717 13.755 6.438 13.8353C3.954 14.547 3.84825 15.417 6.42225 16.1618C7.98825 16.614 10.005 16.6155 11.5778 16.161C14.292 15.3758 13.9507 14.4548 11.3767 13.7858C11.1547 13.728 10.911 13.6972 10.6747 13.6575L11.5417 12.2865C13.584 12.765 15 13.7985 15 15Z" fill="#727272"/>
  </g>
  <defs>
    <clipPath id="clip0_155_333">
      <rect width="18" height="18" fill="white"/>
    </clipPath>
  </defs>
</svg>