<svg width="29" height="28" viewBox="0 0 29 28" fill="none" xmlns="http://www.w3.org/2000/svg">
<path id="Union" fill-rule="evenodd" clip-rule="evenodd" d="M9.83955 6.56853C9.34088 6.07695 9.34088 5.27992 9.83955 4.78833L13.5509 1.12968C14.0496 0.638089 14.8581 0.638089 15.3568 1.12968L19.0681 4.78833C19.5668 5.27992 19.5668 6.07695 19.0681 6.56853L15.3568 10.2272C14.8581 10.7188 14.0496 10.7188 13.5509 10.2272L9.83955 6.56853ZM13.7733 14.4674C13.524 14.2216 13.524 13.8231 13.7733 13.5773L14.0198 13.3343C14.2691 13.0885 14.6734 13.0885 14.9227 13.3343L15.1692 13.5773C15.4186 13.8231 15.4186 14.2216 15.1692 14.4674L14.9227 14.7104C14.6734 14.9562 14.2691 14.9562 14.0198 14.7104L13.7733 14.4674ZM18.5983 13.1511C18.0997 13.6427 18.0997 14.4397 18.5983 14.9313L22.3097 18.59C22.8084 19.0816 23.6169 19.0816 24.1156 18.59L27.8269 14.9313C28.3256 14.4397 28.3256 13.6427 27.8269 13.1511L24.1156 9.49247C23.6169 9.00088 22.8084 9.00088 22.3097 9.49247L18.5983 13.1511ZM1.13499 14.9219C0.636318 14.4303 0.636318 13.6333 1.13499 13.1417L4.84636 9.48306C5.34503 8.99147 6.15354 8.99147 6.65221 9.48306L10.3636 13.1417C10.8623 13.6333 10.8623 14.4303 10.3636 14.9219L6.65221 18.5806C6.15354 19.0722 5.34503 19.0722 4.84636 18.5806L1.13499 14.9219ZM9.83955 21.4544C9.34088 21.946 9.34088 22.743 9.83955 23.2346L13.5509 26.8933C14.0496 27.3848 14.8581 27.3848 15.3568 26.8933L19.0681 23.2346C19.5668 22.743 19.5668 21.946 19.0681 21.4544L15.3568 17.7957C14.8581 17.3042 14.0496 17.3042 13.5509 17.7957L9.83955 21.4544Z" fill="white"/>
</svg>
